<svg xmlns="http://www.w3.org/2000/svg" viewBox="0 0 384 512" xmlns:v="https://vecta.io/nano"><defs><linearGradient id="A" x1="140.484" y1="198.116" x2="377.524" y2="507.104" gradientUnits="userSpaceOnUse"><stop offset="0" stop-color="#cbd5e0"/><stop offset="1" stop-color="#718096"/></linearGradient></defs><path d="M368 32h-56a16 16 0 0 0-16 16v48h-48V48a16 16 0 0 0-16-16h-80a16 16 0 0 0-16 16v48H88.1V48a16 16 0 0 0-16-16H16A16 16 0 0 0 0 48v176l64 32c0 48.33-1.54 95-13.2 160H333.2C321.54 351 320 303.72 320 256l64-32V48a16 16 0 0 0-16-16zM224 320h-64v-64a32 32 0 0 1 64 0zm144 128H16a16 16 0 0 0-16 16v32a16 16 0 0 0 16 16h352a16 16 0 0 0 16-16v-32a16 16 0 0 0-16-16z" fill="url(#A)"/></svg>